<svg data-v-fde0c5aa="" xmlns="http://www.w3.org/2000/svg" viewBox="0 0 300 300" class="iconLeftSlogan"><!----><defs data-v-fde0c5aa=""><!----></defs><rect data-v-fde0c5aa="" fill="transparent" x="0" y="0" width="300px" height="300px" class="logo-background-square"></rect><defs data-v-fde0c5aa=""><!----></defs><g data-v-fde0c5aa="" id="85ac3c2b-ef72-45de-b2d4-45ac573d6deb" fill="#000000" transform="matrix(1.594604086479383,0,0,1.594604086479383,124.13973572408251,131.48481393488282)"><path d="M6.99 0.71L6.99 0.71L6.99 1.57L4.05 1.57L4.05 10.50L3.08 10.50L3.08 1.57L0.14 1.57L0.14 0.71L6.99 0.71ZM12.49 7.18L7.56 7.18Q7.55 7.95 7.80 8.55L7.80 8.55Q7.90 8.81 8.07 9.06Q8.25 9.31 8.50 9.50Q8.75 9.69 9.11 9.81Q9.46 9.93 9.94 9.93L9.94 9.93Q10.35 9.93 10.71 9.82Q11.07 9.72 11.35 9.59L11.35 9.59Q11.69 9.44 11.98 9.24L11.98 9.24L12.00 10.14Q12.00 10.14 11.84 10.23Q11.69 10.32 11.43 10.42Q11.17 10.51 10.82 10.60Q10.46 10.68 10.07 10.68L10.07 10.68Q8.93 10.68 8.25 10.32Q7.56 9.97 7.18 9.41Q6.80 8.85 6.69 8.15Q6.57 7.46 6.57 6.78L6.57 6.78Q6.57 6.13 6.76 5.49Q6.96 4.84 7.34 4.33Q7.73 3.82 8.30 3.51Q8.88 3.19 9.65 3.19L9.65 3.19Q10.50 3.19 11.05 3.54Q11.61 3.89 11.92 4.42Q12.24 4.96 12.36 5.59Q12.49 6.22 12.49 6.78L12.49 6.78L12.49 7.18ZM7.55 6.43L11.51 6.43Q11.51 5.96 11.40 5.52Q11.30 5.07 11.07 4.72Q10.85 4.37 10.49 4.16Q10.14 3.95 9.65 3.95L9.65 3.95Q9.16 3.95 8.77 4.17Q8.39 4.40 8.11 4.75Q7.84 5.10 7.69 5.54Q7.55 5.99 7.55 6.43L7.55 6.43ZM17.18 10.68L17.18 10.68Q16.30 10.68 15.63 10.39Q14.97 10.11 14.52 9.61Q14.07 9.11 13.84 8.44Q13.61 7.76 13.61 6.96L13.61 6.96Q13.61 6.16 13.85 5.47Q14.08 4.79 14.54 4.28Q14.99 3.77 15.66 3.48Q16.32 3.19 17.18 3.19L17.18 3.19Q17.60 3.19 17.95 3.24Q18.30 3.29 18.55 3.35Q18.80 3.40 18.94 3.46Q19.08 3.51 19.08 3.51L19.08 3.51L18.79 4.20Q18.05 3.93 17.30 3.96Q16.55 3.99 15.94 4.33Q15.33 4.66 14.95 5.31Q14.57 5.96 14.57 6.96L14.57 6.96Q14.57 7.91 14.97 8.55Q15.36 9.20 15.97 9.53Q16.58 9.87 17.32 9.90Q18.07 9.93 18.79 9.65L18.79 9.65L19.10 10.33Q19.08 10.33 18.94 10.39Q18.80 10.44 18.55 10.51Q18.30 10.57 17.95 10.63Q17.60 10.68 17.18 10.68ZM23.95 3.19L23.95 3.19Q24.61 3.19 25.06 3.40Q25.51 3.61 25.79 4.02Q26.07 4.42 26.19 5.02Q26.32 5.61 26.32 6.37L26.32 6.37L26.32 10.50L25.44 10.50L25.44 6.43Q25.44 5.15 25.09 4.56Q24.74 3.96 23.86 3.95L23.86 3.95Q23.30 3.95 22.86 4.15Q22.43 4.35 22.13 4.74Q21.83 5.12 21.67 5.67Q21.52 6.22 21.52 6.87L21.52 6.87L21.52 10.50L20.64 10.50L20.64 0L21.52 0L21.52 4.56Q21.85 3.93 22.48 3.56Q23.11 3.19 23.95 3.19ZM32.97 0.53L32.97 0.53Q33.82 0.53 34.50 0.67Q35.18 0.81 35.46 0.91L35.46 0.91L35.46 1.72Q34.76 1.54 34.03 1.46Q33.29 1.37 32.59 1.44Q31.89 1.50 31.28 1.74Q30.67 1.99 30.21 2.48Q29.75 2.97 29.48 3.74Q29.22 4.51 29.22 5.61L29.22 5.61Q29.22 6.72 29.48 7.49Q29.75 8.26 30.20 8.75Q30.66 9.24 31.27 9.49Q31.88 9.74 32.57 9.81Q33.26 9.87 34.01 9.77Q34.75 9.67 35.46 9.49L35.46 9.49L35.46 10.28Q35.06 10.40 34.62 10.49L34.62 10.49Q34.26 10.56 33.82 10.62Q33.38 10.68 32.97 10.68L32.97 10.68Q32.26 10.68 31.43 10.47Q30.60 10.26 29.89 9.70Q29.18 9.13 28.71 8.14Q28.24 7.15 28.24 5.61L28.24 5.61Q28.24 4.07 28.71 3.09Q29.18 2.10 29.89 1.53Q30.60 0.97 31.43 0.75Q32.26 0.53 32.97 0.53ZM40.53 3.19L40.53 3.19Q40.66 3.19 40.88 3.21Q41.10 3.22 41.36 3.30Q41.62 3.37 41.89 3.54Q42.15 3.70 42.37 3.98Q42.59 4.26 42.73 4.68Q42.87 5.11 42.87 5.73L42.87 5.73L42.87 10.50L42.11 10.50L42.03 9.35Q42.03 9.35 41.90 9.56Q41.78 9.77 41.51 10.02Q41.24 10.28 40.83 10.48Q40.42 10.68 39.83 10.68L39.83 10.68Q38.67 10.68 38.00 10.12Q37.34 9.55 37.41 8.46L37.41 8.46Q37.48 7.22 38.57 6.66Q39.66 6.10 41.97 6.15L41.97 6.15L41.97 5.71Q41.97 5.00 41.76 4.63Q41.55 4.27 41.27 4.12Q40.99 3.98 40.73 3.97Q40.46 3.96 40.35 3.96L40.35 3.96Q39.83 3.96 39.44 4.06Q39.05 4.16 38.78 4.27L38.78 4.27Q38.46 4.41 38.23 4.56L38.23 4.56L38.23 3.68Q38.57 3.56 38.93 3.44L38.93 3.44Q39.26 3.35 39.67 3.27Q40.08 3.19 40.53 3.19ZM39.79 9.93L39.79 9.93Q40.56 9.93 41.00 9.65Q41.44 9.38 41.66 8.97Q41.87 8.55 41.92 8.09Q41.97 7.62 41.97 7.21L41.97 7.21L41.97 6.92L41.17 6.92Q40.89 6.92 40.42 6.96Q39.94 7.01 39.49 7.17Q39.03 7.34 38.70 7.64Q38.37 7.94 38.37 8.46L38.37 8.46Q38.37 9.24 38.77 9.58Q39.17 9.93 39.79 9.93ZM48.83 3.82L48.51 4.52Q48.10 4.26 47.64 4.10Q47.18 3.95 46.76 3.95L46.76 3.95Q46.16 3.95 45.83 4.22Q45.50 4.49 45.50 5.08L45.50 5.08Q45.50 5.36 45.63 5.56Q45.75 5.77 45.96 5.92Q46.17 6.08 46.44 6.20Q46.72 6.31 47.03 6.41L47.03 6.41Q47.39 6.54 47.76 6.69Q48.13 6.85 48.43 7.09Q48.73 7.34 48.92 7.70Q49.11 8.06 49.11 8.61L49.11 8.61Q49.11 9.14 48.91 9.53Q48.71 9.93 48.38 10.18Q48.05 10.43 47.62 10.55Q47.19 10.67 46.73 10.67L46.73 10.67Q46.06 10.67 45.40 10.44Q44.74 10.21 44.28 9.72L44.28 9.72L44.59 8.96Q45.07 9.41 45.63 9.66Q46.19 9.91 46.76 9.91L46.76 9.91Q47.38 9.91 47.75 9.63Q48.12 9.34 48.13 8.74L48.13 8.74Q48.13 8.41 48.01 8.19Q47.89 7.97 47.68 7.80Q47.47 7.64 47.19 7.52Q46.90 7.39 46.58 7.28L46.58 7.28Q46.21 7.15 45.85 7Q45.49 6.85 45.19 6.61Q44.90 6.37 44.72 6.02Q44.55 5.67 44.55 5.15L44.55 5.15Q44.55 4.63 44.74 4.26Q44.93 3.88 45.24 3.65Q45.56 3.42 45.97 3.30Q46.38 3.19 46.83 3.19L46.83 3.19Q47.36 3.19 47.89 3.36Q48.41 3.53 48.83 3.82L48.83 3.82ZM54.04 3.19L54.04 3.19Q54.70 3.19 55.15 3.40Q55.59 3.61 55.87 4.02Q56.15 4.42 56.28 5.02Q56.41 5.61 56.41 6.37L56.41 6.37L56.41 10.50L55.52 10.50L55.52 6.43Q55.52 5.15 55.17 4.56Q54.82 3.96 53.94 3.95L53.94 3.95Q53.38 3.95 52.95 4.15Q52.51 4.35 52.21 4.74Q51.91 5.12 51.76 5.67Q51.60 6.22 51.60 6.87L51.60 6.87L51.60 10.50L50.72 10.50L50.72 0L51.60 0L51.60 4.56Q51.94 3.93 52.57 3.56Q53.20 3.19 54.04 3.19ZM63.06 0.53L63.06 0.53Q63.91 0.53 64.59 0.67Q65.27 0.81 65.55 0.91L65.55 0.91L65.55 1.72Q64.85 1.54 64.11 1.46Q63.38 1.37 62.68 1.44Q61.98 1.50 61.37 1.74Q60.76 1.99 60.30 2.48Q59.84 2.97 59.57 3.74Q59.30 4.51 59.30 5.61L59.30 5.61Q59.30 6.72 59.57 7.49Q59.84 8.26 60.29 8.75Q60.75 9.24 61.35 9.49Q61.96 9.74 62.66 9.81Q63.35 9.87 64.09 9.77Q64.83 9.67 65.55 9.49L65.55 9.49L65.55 10.28Q65.14 10.40 64.71 10.49L64.71 10.49Q64.34 10.56 63.90 10.62Q63.46 10.68 63.06 10.68L63.06 10.68Q62.34 10.68 61.52 10.47Q60.69 10.26 59.98 9.70Q59.26 9.13 58.79 8.14Q58.32 7.15 58.32 5.61L58.32 5.61Q58.32 4.07 58.79 3.09Q59.26 2.10 59.98 1.53Q60.69 0.97 61.52 0.75Q62.34 0.53 63.06 0.53ZM70.03 9.84L70.03 10.58Q70.03 10.60 69.73 10.64Q69.43 10.68 69.08 10.68L69.08 10.68Q68.73 10.68 68.52 10.58Q68.31 10.47 68.20 10.26Q68.10 10.05 68.07 9.75Q68.04 9.45 68.04 9.04L68.04 9.04L68.04 0.14L68.92 0.14L68.92 9.31Q68.92 9.60 69.03 9.76Q69.13 9.91 69.38 9.91L69.38 9.91Q69.52 9.91 69.72 9.89Q69.92 9.87 70.03 9.84L70.03 9.84ZM73.65 10.68L73.65 10.68Q73.00 10.68 72.55 10.47Q72.10 10.26 71.82 9.86Q71.54 9.45 71.41 8.86Q71.29 8.26 71.29 7.50L71.29 7.50L71.29 3.36L72.17 3.36L72.17 7.45Q72.17 8.72 72.52 9.32Q72.87 9.91 73.75 9.93L73.75 9.93Q74.31 9.93 74.75 9.72Q75.18 9.52 75.48 9.13Q75.78 8.75 75.94 8.20Q76.09 7.66 76.09 7L76.09 7L76.09 3.36L76.97 3.36L76.97 10.50L76.22 10.50L76.09 9.31Q75.75 9.94 75.12 10.31Q74.49 10.68 73.65 10.68ZM82.26 3.19L82.26 3.19Q83.08 3.19 83.64 3.49Q84.20 3.79 84.55 4.31Q84.90 4.83 85.05 5.52Q85.20 6.20 85.20 6.96L85.20 6.96Q85.20 7.71 85.01 8.39Q84.81 9.07 84.44 9.58Q84.07 10.08 83.52 10.38Q82.98 10.68 82.26 10.68L82.26 10.68Q81.59 10.68 81.16 10.48Q80.72 10.28 80.44 10.02L80.44 10.02Q80.12 9.73 79.93 9.35L79.93 9.35L79.93 9.37L79.80 10.50L79.04 10.50L79.04 0L79.93 0L79.93 4.56Q79.93 4.56 80.05 4.35Q80.16 4.14 80.44 3.88Q80.72 3.63 81.17 3.41Q81.61 3.19 82.26 3.19ZM82.19 9.91L82.19 9.91Q82.61 9.91 82.98 9.73Q83.36 9.55 83.64 9.18Q83.92 8.81 84.08 8.25Q84.24 7.70 84.24 6.94L84.24 6.94Q84.24 6.19 84.08 5.63Q83.92 5.07 83.64 4.69Q83.36 4.31 82.98 4.13Q82.61 3.95 82.19 3.95L82.19 3.95Q81.76 3.95 81.35 4.09Q80.93 4.24 80.62 4.59Q80.30 4.94 80.12 5.52Q79.93 6.09 79.93 6.94L79.93 6.94Q79.93 7.73 80.09 8.29Q80.26 8.85 80.56 9.21Q80.86 9.56 81.28 9.74Q81.70 9.91 82.19 9.91Z"></path></g><defs data-v-fde0c5aa=""><linearGradient data-v-fde0c5aa="" gradientTransform="rotate(25)" id="c6c3e096-8fb2-4e66-b161-315384be439b" x1="0%" y1="0%" x2="100%" y2="0%"><stop data-v-fde0c5aa="" offset="0%" stop-color="#288B58" stop-opacity="1"></stop><stop data-v-fde0c5aa="" offset="100%" stop-color="#1522F1" stop-opacity="1"></stop></linearGradient></defs><g data-v-fde0c5aa="" id="a0446555-75b6-42a1-a416-e01c2fa13289" stroke="none" fill="url(#c6c3e096-8fb2-4e66-b161-315384be439b)" transform="matrix(2.2300931342856276,0,0,2.2300931342856276,40,114.31850985142995)"><path d="M16 19.586l7.496-12.954H8.504zM7.496 12.414L0 25.368h14.992zM24.504 12.414l-7.496 12.954H32z"></path></g><defs data-v-fde0c5aa=""><!----></defs><g data-v-fde0c5aa="" id="84403569-e792-410e-bd73-693d19ebc050" fill="#000000" transform="matrix(0.7591907361615382,0,0,0.7591907361615382,123.29252138449304,154.87866246786425)"><path d="M10.54 5.74L10.54 5.74Q10.58 5.98 10.61 6.07Q10.63 6.16 10.63 6.31L10.63 6.31Q10.63 6.78 10.42 7.18Q10.22 7.57 9.87 7.74L9.87 7.74Q9.59 7.36 9.18 7.09Q8.78 6.82 8.29 6.64Q7.81 6.47 7.29 6.38Q6.78 6.30 6.29 6.30L6.29 6.30Q5.80 6.30 5.37 6.38Q4.94 6.45 4.61 6.59Q4.28 6.72 4.09 6.92Q3.91 7.11 3.91 7.36L3.91 7.36Q3.95 7.67 4.28 7.99Q4.62 8.30 5.11 8.60Q5.60 8.90 6.20 9.20Q6.79 9.49 7.36 9.76L7.36 9.76Q8.08 10.09 8.60 10.38Q9.11 10.67 9.45 11.01Q9.79 11.35 9.95 11.79Q10.12 12.22 10.12 12.84L10.12 12.84Q10.12 13.55 9.88 14.18Q9.65 14.80 9.19 15.26Q8.74 15.72 8.09 15.98Q7.45 16.24 6.65 16.24L6.65 16.24Q5.87 16.24 4.96 16.00Q4.05 15.76 3.25 15.35Q2.46 14.94 1.94 14.40Q1.41 13.86 1.41 13.26L1.41 13.26Q1.41 12.98 1.57 12.54Q1.74 12.11 2.16 11.63L2.16 11.63Q2.20 12.05 2.61 12.63Q3.02 13.20 3.85 13.69L3.85 13.69Q4.62 14.14 5.44 14.34Q6.26 14.55 6.97 14.55L6.97 14.55Q7.76 14.55 8.25 14.35Q8.74 14.15 9.02 13.88Q9.30 13.61 9.41 13.33Q9.52 13.05 9.53 12.88L9.53 12.88Q9.52 12.60 9.28 12.34Q9.03 12.08 8.62 11.84Q8.20 11.59 7.66 11.34Q7.11 11.09 6.52 10.84L6.52 10.84Q5.64 10.44 5.00 10.10Q4.37 9.76 3.96 9.40Q3.54 9.04 3.35 8.65Q3.16 8.26 3.16 7.76L3.16 7.76Q3.16 6.97 3.64 6.27Q4.12 5.57 5.01 5.21L5.01 5.21Q5.46 5.01 5.97 4.93Q6.48 4.84 6.97 4.84L6.97 4.84Q7.90 4.84 8.78 5.10Q9.66 5.35 10.54 5.74ZM23.70 14.36L23.70 14.36Q23.70 13.78 23.90 12.85Q24.09 11.93 24.42 10.88L24.42 10.88Q23.49 10.95 22.56 11.06Q21.63 11.17 20.94 11.19L20.94 11.19Q20.31 12.66 19.94 13.89Q19.57 15.13 19.36 16.31L19.36 16.31Q18.83 16.18 18.48 15.87Q18.13 15.55 17.84 15.08L17.84 15.08Q17.95 14.85 18.09 14.50Q18.24 14.15 18.45 13.66Q18.65 13.16 18.91 12.50Q19.17 11.83 19.50 10.95L19.50 10.95Q19.04 10.75 18.89 10.40L18.89 10.40Q18.96 10.35 19.20 10.28Q19.45 10.22 19.81 10.15L19.81 10.15L19.99 9.70Q20.29 8.95 20.48 8.43Q20.66 7.91 20.80 7.41Q20.93 6.92 21.05 6.31Q21.17 5.71 21.34 4.79L21.34 4.79Q21.92 4.90 22.41 5.31Q22.89 5.71 23.24 6.29L23.24 6.29Q23.11 6.45 22.93 6.79Q22.75 7.13 22.53 7.59Q22.32 8.06 22.06 8.64Q21.81 9.23 21.52 9.87L21.52 9.87Q22.39 9.76 23.27 9.66Q24.16 9.56 24.85 9.52L24.85 9.52Q25.10 8.79 25.38 8.10Q25.65 7.41 25.91 6.83Q26.18 6.26 26.42 5.82Q26.67 5.39 26.87 5.18L26.87 5.18Q27.01 5.19 27.24 5.29Q27.47 5.38 27.71 5.50Q27.94 5.63 28.14 5.78Q28.34 5.92 28.41 6.05L28.41 6.05Q28.15 6.29 27.90 6.66Q27.65 7.04 27.41 7.53Q27.16 8.02 26.92 8.60Q26.68 9.17 26.47 9.79L26.47 9.79Q26.75 10.04 26.75 10.42L26.75 10.42Q26.75 10.68 26.64 10.91L26.64 10.91Q26.52 10.88 26.39 10.87Q26.26 10.86 26.12 10.85L26.12 10.85Q25.89 11.61 25.69 12.35Q25.49 13.09 25.36 13.76Q25.23 14.43 25.15 14.99Q25.07 15.55 25.07 15.93L25.07 15.93Q25.07 16.07 25.08 16.16Q25.09 16.24 25.10 16.30L25.10 16.30Q24.79 16.28 24.65 16.19Q24.51 16.10 24.44 16.00Q24.37 15.89 24.32 15.79Q24.26 15.68 24.14 15.62L24.14 15.62Q24.04 15.58 23.95 15.43Q23.87 15.27 23.81 15.08Q23.76 14.88 23.73 14.69Q23.70 14.49 23.70 14.36ZM35.32 16.24L35.32 16.24Q34.65 16.04 34.39 15.85Q34.13 15.65 34.13 15.36L34.13 15.36Q34.13 15.13 34.26 14.73Q34.38 14.32 34.63 13.77Q34.87 13.22 35.22 12.54Q35.56 11.87 35.99 11.10L35.99 11.10Q35.63 11.09 35.34 11.08Q35.06 11.07 34.87 11.07L34.87 11.07Q34.96 10.86 35.35 10.71Q35.74 10.56 36.39 10.44L36.39 10.44Q36.93 9.53 37.55 8.71Q38.18 7.88 38.81 7.19Q39.44 6.50 40.07 5.97Q40.70 5.45 41.27 5.14L41.27 5.14Q41.29 5.04 41.29 4.97Q41.30 4.90 41.30 4.87L41.30 4.87Q41.50 4.87 41.83 4.97Q42.15 5.07 42.47 5.21Q42.78 5.35 43.03 5.49Q43.27 5.64 43.30 5.74L43.30 5.74Q42.84 6.55 42.39 8.17Q41.94 9.79 41.65 12.04L41.65 12.04Q41.58 12.60 41.53 13.31Q41.48 14.03 41.48 14.91L41.48 14.91Q41.48 15.22 41.48 15.54Q41.48 15.86 41.51 16.21L41.51 16.21Q41.48 16.23 41.45 16.23Q41.43 16.23 41.34 16.23L41.34 16.23Q41.15 16.23 40.89 16.16Q40.63 16.10 40.38 16.01Q40.14 15.92 39.96 15.81Q39.79 15.69 39.75 15.61L39.75 15.61Q39.73 15.43 39.73 15.25Q39.73 15.08 39.73 14.88L39.73 14.88Q39.73 14.01 39.80 13.12Q39.86 12.22 40.01 11.27L40.01 11.27Q39.82 11.26 39.49 11.23Q39.17 11.21 38.77 11.20Q38.37 11.19 37.92 11.16Q37.46 11.14 37.03 11.13L37.03 11.13Q36.69 11.76 36.40 12.38Q36.11 13.01 35.90 13.64L35.90 13.64Q35.66 14.31 35.51 14.98Q35.36 15.65 35.32 16.24ZM40.73 7.83L40.73 7.83Q40.78 7.63 40.86 7.29Q40.94 6.94 41.01 6.57L41.01 6.57Q40.66 6.69 40.23 7.03Q39.80 7.36 39.35 7.86Q38.89 8.36 38.42 8.98Q37.95 9.60 37.52 10.30L37.52 10.30Q38.70 10.21 40.19 10.18L40.19 10.18Q40.31 9.59 40.44 9.01Q40.57 8.43 40.73 7.83ZM60.20 7.46L60.20 7.46Q60.20 8.13 59.90 8.73Q59.60 9.32 59.07 9.79Q58.53 10.26 57.82 10.58Q57.11 10.91 56.27 11.02L56.27 11.02Q56.48 11.65 56.78 12.31Q57.08 12.98 57.43 13.59Q57.78 14.21 58.16 14.73Q58.53 15.25 58.90 15.58L58.90 15.58Q58.83 15.72 58.70 15.86Q58.56 16.00 58.39 16.12Q58.21 16.24 58.02 16.32Q57.83 16.39 57.67 16.39L57.67 16.39Q57.36 16.39 57.08 16.10Q56.80 15.81 56.51 15.17Q56.22 14.53 55.91 13.52Q55.59 12.50 55.22 11.07L55.22 11.07Q55.06 11.07 54.91 11.07Q54.75 11.07 54.67 11.05L54.67 11.05Q54.57 10.99 54.46 10.85L54.46 10.85Q54.08 11.66 53.79 12.38Q53.49 13.09 53.26 13.76Q53.03 14.42 52.86 15.04Q52.68 15.67 52.56 16.31L52.56 16.31Q52.08 16.20 51.73 15.90Q51.38 15.61 51.07 15.08L51.07 15.08Q51.13 14.95 51.19 14.83Q51.25 14.71 51.35 14.50Q51.45 14.28 51.60 13.94Q51.74 13.61 51.99 13.05Q52.23 12.49 52.58 11.68Q52.92 10.86 53.41 9.70L53.41 9.70Q53.63 9.18 53.80 8.79Q53.96 8.40 54.08 8.04Q54.21 7.69 54.31 7.33Q54.42 6.97 54.53 6.51L54.53 6.51Q53.89 6.73 53.33 7.01Q52.78 7.28 52.42 7.59L52.42 7.59Q52.29 7.50 52.16 7.34Q52.02 7.17 51.91 6.96Q51.80 6.76 51.72 6.55Q51.63 6.34 51.62 6.17L51.62 6.17Q52.04 5.89 52.65 5.66Q53.26 5.42 53.94 5.24Q54.63 5.07 55.34 4.97Q56.06 4.87 56.67 4.87L56.67 4.87Q58.35 4.87 59.28 5.56Q60.20 6.26 60.20 7.46ZM56.62 6.02L56.78 6.29Q56.69 6.41 56.48 6.79Q56.27 7.17 55.99 7.69Q55.72 8.22 55.42 8.83Q55.12 9.45 54.84 10.05L54.84 10.05Q55.89 10.05 56.77 9.86Q57.65 9.66 58.30 9.30Q58.94 8.95 59.30 8.46Q59.65 7.98 59.65 7.39L59.65 7.39Q59.65 6.69 59.15 6.32Q58.65 5.95 57.60 5.95L57.60 5.95Q57.36 5.95 57.12 5.97Q56.88 5.99 56.62 6.02L56.62 6.02ZM67.77 14.38L67.77 14.38Q67.77 13.87 67.94 13.07Q68.10 12.26 68.36 11.33Q68.61 10.40 68.95 9.43Q69.29 8.46 69.64 7.60Q69.99 6.75 70.32 6.10Q70.66 5.46 70.92 5.18L70.92 5.18Q71.06 5.19 71.30 5.29Q71.53 5.38 71.76 5.50Q72.00 5.63 72.20 5.78Q72.39 5.92 72.45 6.05L72.45 6.05Q72.04 6.41 71.64 7.15Q71.25 7.88 70.88 8.82Q70.50 9.76 70.18 10.80Q69.86 11.84 69.62 12.82Q69.38 13.80 69.25 14.64Q69.12 15.48 69.12 16.00L69.12 16.00Q69.12 16.24 69.16 16.30L69.16 16.30Q68.85 16.28 68.71 16.19Q68.57 16.10 68.50 16.00Q68.42 15.89 68.36 15.79Q68.29 15.68 68.17 15.62L68.17 15.62Q68.07 15.58 68.00 15.43Q67.93 15.27 67.88 15.09Q67.83 14.90 67.80 14.70Q67.77 14.50 67.77 14.38ZM80.01 16.24L80.01 16.24Q79.21 16.00 78.93 15.79Q78.65 15.57 78.65 15.19L78.65 15.19Q78.65 14.77 78.85 14.01Q79.04 13.24 79.36 12.31Q79.67 11.37 80.08 10.35Q80.49 9.32 80.91 8.39Q81.33 7.45 81.72 6.67Q82.12 5.89 82.43 5.46L82.43 5.46L82.33 4.87Q82.53 4.87 82.88 4.97Q83.23 5.07 83.59 5.21Q83.94 5.35 84.22 5.49Q84.49 5.64 84.52 5.74L84.52 5.74Q84.45 6.08 84.41 6.76Q84.36 7.43 84.36 8.20L84.36 8.20Q84.36 9.73 84.48 11.19Q84.60 12.66 85.04 14.17L85.04 14.17Q85.26 13.05 85.52 11.94Q85.78 10.82 86.06 9.81Q86.34 8.79 86.62 7.92Q86.90 7.06 87.16 6.40Q87.42 5.75 87.64 5.38Q87.86 5.01 88.05 4.98L88.05 4.98Q88.20 5.01 88.38 5.10Q88.56 5.19 88.73 5.32Q88.90 5.45 89.04 5.60Q89.18 5.75 89.26 5.91L89.26 5.91Q88.82 6.09 88.38 6.76Q87.93 7.43 87.53 8.39Q87.14 9.35 86.79 10.47Q86.45 11.59 86.19 12.68Q85.93 13.76 85.78 14.69Q85.64 15.61 85.62 16.17L85.62 16.17Q85.62 16.20 85.64 16.21L85.64 16.21Q85.60 16.23 85.55 16.23Q85.50 16.23 85.46 16.23L85.46 16.23Q84.81 16.23 84.31 16.07Q83.82 15.90 83.66 15.61L83.66 15.61Q83.37 14.43 83.17 13.34Q82.98 12.25 82.84 11.16Q82.71 10.07 82.63 8.95Q82.56 7.84 82.52 6.62L82.52 6.62Q82.25 7.04 81.96 7.72Q81.66 8.40 81.38 9.21Q81.10 10.02 80.84 10.92Q80.58 11.82 80.39 12.67Q80.19 13.52 80.08 14.29Q79.97 15.05 79.97 15.61L79.97 15.61Q79.97 15.90 79.97 16.03Q79.98 16.16 80.01 16.24ZM103.08 10.72L103.08 10.72Q103.45 10.72 103.66 10.98Q103.87 11.23 103.87 11.68L103.87 11.68Q103.87 11.79 103.85 11.91Q103.84 12.03 103.81 12.11L103.81 12.11Q103.52 12.04 103.17 12.03L103.17 12.03Q103.08 12.64 102.72 13.32Q102.35 14 101.84 14.60Q101.32 15.19 100.70 15.64Q100.09 16.09 99.48 16.24L99.48 16.24Q97.61 16.20 96.75 15.27Q95.89 14.34 95.89 12.36L95.89 12.36Q95.89 10.92 96.42 9.57Q96.95 8.22 97.83 7.17Q98.71 6.12 99.85 5.48Q101.00 4.84 102.23 4.84L102.23 4.84Q103.19 4.84 103.73 5.25Q104.27 5.66 104.27 6.40L104.27 6.40Q104.27 6.89 104.04 7.31Q103.81 7.73 103.28 8.22L103.28 8.22Q102.96 8.12 102.72 7.88Q102.48 7.63 102.42 7.31L102.42 7.31Q102.90 6.96 103.10 6.66Q103.29 6.37 103.29 5.96L103.29 5.96Q103.29 5.32 102.52 5.32L102.52 5.32Q101.89 5.32 101.17 5.79Q100.45 6.26 99.72 7.14L99.72 7.14Q98.69 8.39 98.21 9.71Q97.73 11.03 97.73 12.68L97.73 12.68Q97.73 13.30 97.86 13.80Q97.99 14.31 98.20 14.69Q98.41 15.06 98.69 15.29Q98.98 15.51 99.32 15.54L99.32 15.54Q99.76 15.44 100.21 15.09Q100.66 14.73 101.03 14.25Q101.40 13.76 101.66 13.21Q101.92 12.66 101.98 12.15L101.98 12.15Q101.58 12.24 101.23 12.31Q100.87 12.39 100.55 12.39L100.55 12.39Q100.13 12.39 99.81 12.18Q99.50 11.97 99.39 11.61L99.39 11.61Q99.64 11.47 100.12 11.31Q100.60 11.16 101.15 11.03Q101.70 10.89 102.22 10.81Q102.75 10.72 103.08 10.72ZM131.40 7.46L131.40 7.46Q131.40 8.33 130.93 9.01Q130.45 9.69 129.63 10.14L129.63 10.14Q130.16 10.50 130.47 11.03Q130.79 11.55 130.79 12.18L130.79 12.18Q130.79 12.94 130.33 13.67Q129.88 14.41 129.12 14.97Q128.37 15.54 127.40 15.89Q126.43 16.24 125.43 16.24L125.43 16.24Q124.33 16.24 123.51 15.83Q122.70 15.41 122.23 14.66L122.23 14.66Q122.37 14.24 122.60 13.62Q122.84 12.99 123.12 12.30Q123.40 11.61 123.68 10.92Q123.97 10.23 124.22 9.69L124.22 9.69Q124.75 8.50 125.17 7.71Q125.59 6.93 125.94 6.47L125.94 6.47Q125.17 6.71 124.54 7.01Q123.91 7.31 123.62 7.59L123.62 7.59Q123.49 7.50 123.36 7.34Q123.23 7.17 123.11 6.96Q122.99 6.76 122.91 6.55Q122.84 6.34 122.82 6.17L122.82 6.17Q123.19 5.92 123.77 5.69Q124.35 5.46 125.03 5.29Q125.72 5.12 126.44 5.03Q127.16 4.93 127.82 4.93L127.82 4.93Q129.50 4.93 130.45 5.60Q131.40 6.27 131.40 7.46ZM126.07 10.81L126.07 10.81Q125.80 10.68 125.58 10.43L125.58 10.43Q125.26 11.14 124.97 11.83Q124.68 12.52 124.46 13.10Q124.24 13.69 124.10 14.13Q123.96 14.56 123.94 14.76L123.94 14.76Q124.14 14.87 124.41 14.92Q124.68 14.98 125.09 14.98L125.09 14.98Q126.04 14.98 126.91 14.71Q127.78 14.45 128.44 13.99Q129.09 13.54 129.49 12.95Q129.88 12.36 129.88 11.72L129.88 11.72Q129.88 10.79 129.08 10.39L129.08 10.39Q127.99 10.84 126.62 10.84L126.62 10.84Q126.42 10.84 126.31 10.84Q126.21 10.84 126.07 10.81ZM128.79 5.95L128.79 5.95Q128.49 5.95 128.16 5.98Q127.83 6.02 127.47 6.09L127.47 6.09Q127.53 6.15 127.56 6.21Q127.60 6.27 127.62 6.34L127.62 6.34Q127.50 6.51 127.32 6.83Q127.13 7.15 126.91 7.58Q126.69 8.01 126.44 8.53Q126.20 9.04 125.94 9.59L125.94 9.59Q126.18 9.53 126.52 9.50Q126.87 9.46 127.20 9.46L127.20 9.46Q127.39 9.46 127.56 9.48Q127.74 9.49 127.90 9.52L127.90 9.52Q128.58 9.41 129.11 9.19Q129.65 8.97 130.05 8.69Q130.44 8.40 130.65 8.05Q130.86 7.70 130.86 7.31L130.86 7.31Q130.86 6.64 130.33 6.29Q129.79 5.95 128.79 5.95ZM144.20 5.75L144.20 5.75Q143.58 6.58 143.08 7.57Q142.58 8.57 142.22 9.61Q141.86 10.65 141.67 11.67Q141.48 12.68 141.48 13.57L141.48 13.57Q141.48 14.66 141.81 15.15Q142.13 15.64 142.91 15.64L142.91 15.64Q143.82 15.64 144.51 15.00Q145.19 14.36 145.80 13.24L145.80 13.24Q146.19 12.52 146.47 11.65Q146.75 10.78 146.92 9.86Q147.10 8.95 147.18 8.02Q147.27 7.08 147.27 6.23L147.27 6.23Q147.27 5.68 147.25 5.43Q147.24 5.18 147.21 5.03L147.21 5.03Q147.25 5.03 147.42 5.05Q147.59 5.08 147.80 5.12Q148.02 5.17 148.24 5.24Q148.46 5.31 148.61 5.39L148.61 5.39Q148.54 6.45 148.35 7.59Q148.16 8.72 147.85 9.83Q147.55 10.93 147.14 11.96Q146.73 12.98 146.23 13.79L146.23 13.79Q145.49 14.99 144.56 15.67Q143.64 16.35 142.38 16.35L142.38 16.35Q141.09 16.35 140.38 15.60Q139.66 14.85 139.66 13.33L139.66 13.33Q139.66 12.45 139.86 11.33Q140.06 10.22 140.38 9.07Q140.71 7.91 141.15 6.81Q141.58 5.71 142.06 4.84L142.06 4.84Q142.30 4.86 142.62 4.94Q142.94 5.03 143.25 5.16Q143.56 5.29 143.81 5.45Q144.07 5.61 144.20 5.75ZM160.59 10.35L160.59 10.35Q161.64 9.20 162.48 7.91Q163.31 6.62 164.02 5.01L164.02 5.01Q164.39 5.05 164.72 5.21Q165.06 5.36 165.26 5.56L165.26 5.56Q164.49 6.48 163.86 7.24Q163.24 7.99 162.72 8.66Q162.20 9.32 161.76 9.93Q161.32 10.54 160.90 11.16L160.90 11.16Q160.69 11.87 160.51 12.60Q160.33 13.33 160.19 13.99Q160.05 14.66 159.97 15.22Q159.89 15.79 159.89 16.20L159.89 16.20Q159.74 16.20 159.40 16.14Q159.07 16.07 158.72 15.99Q158.37 15.90 158.08 15.82Q157.79 15.74 157.74 15.68L157.74 15.68Q157.96 15.30 158.18 14.75Q158.40 14.20 158.61 13.59Q158.82 12.98 159.01 12.36Q159.21 11.73 159.38 11.20L159.38 11.20Q159.03 10.11 158.70 9.15Q158.37 8.19 158.06 7.41Q157.75 6.64 157.47 6.08Q157.19 5.52 156.94 5.22L156.94 5.22Q157.08 5.17 157.37 5.11Q157.65 5.05 158.00 5.00Q158.34 4.94 158.70 4.91Q159.05 4.87 159.33 4.86L159.33 4.86Q159.33 5.21 159.40 5.71Q159.46 6.22 159.56 6.79Q159.67 7.36 159.81 7.95Q159.95 8.54 160.09 9.03Q160.23 9.52 160.36 9.88Q160.50 10.23 160.59 10.35ZM179.98 5.74L179.98 5.74Q180.03 5.98 180.05 6.07Q180.07 6.16 180.07 6.31L180.07 6.31Q180.07 6.78 179.86 7.18Q179.66 7.57 179.31 7.74L179.31 7.74Q179.03 7.36 178.63 7.09Q178.22 6.82 177.74 6.64Q177.25 6.47 176.74 6.38Q176.22 6.30 175.73 6.30L175.73 6.30Q175.24 6.30 174.81 6.38Q174.38 6.45 174.05 6.59Q173.73 6.72 173.54 6.92Q173.35 7.11 173.35 7.36L173.35 7.36Q173.39 7.67 173.73 7.99Q174.06 8.30 174.55 8.60Q175.04 8.90 175.64 9.20Q176.23 9.49 176.81 9.76L176.81 9.76Q177.52 10.09 178.04 10.38Q178.56 10.67 178.89 11.01Q179.23 11.35 179.40 11.79Q179.56 12.22 179.56 12.84L179.56 12.84Q179.56 13.55 179.33 14.18Q179.09 14.80 178.63 15.26Q178.18 15.72 177.53 15.98Q176.89 16.24 176.09 16.24L176.09 16.24Q175.31 16.24 174.40 16.00Q173.49 15.76 172.70 15.35Q171.91 14.94 171.38 14.40Q170.86 13.86 170.86 13.26L170.86 13.26Q170.86 12.98 171.02 12.54Q171.18 12.11 171.60 11.63L171.60 11.63Q171.64 12.05 172.05 12.63Q172.47 13.20 173.29 13.69L173.29 13.69Q174.06 14.14 174.88 14.34Q175.70 14.55 176.41 14.55L176.41 14.55Q177.20 14.55 177.69 14.35Q178.18 14.15 178.46 13.88Q178.74 13.61 178.85 13.33Q178.96 13.05 178.98 12.88L178.98 12.88Q178.96 12.60 178.72 12.34Q178.47 12.08 178.06 11.84Q177.65 11.59 177.10 11.34Q176.55 11.09 175.97 10.84L175.97 10.84Q175.08 10.44 174.45 10.10Q173.81 9.76 173.40 9.40Q172.98 9.04 172.79 8.65Q172.61 8.26 172.61 7.76L172.61 7.76Q172.61 6.97 173.08 6.27Q173.56 5.57 174.45 5.21L174.45 5.21Q174.90 5.01 175.41 4.93Q175.92 4.84 176.41 4.84L176.41 4.84Q177.34 4.84 178.22 5.10Q179.10 5.35 179.98 5.74Z"></path></g></svg>